<?xml version="1.0" encoding="iso-8859-1"?>
<!-- Generator: Adobe Illustrator 19.0.0, SVG Export Plug-In . SVG Version: 6.00 Build 0)  -->
<svg version="1.1" id="Layer_1" xmlns="http://www.w3.org/2000/svg" xmlns:xlink="http://www.w3.org/1999/xlink" x="0px" y="0px"
	 viewBox="0 0 512.287 512.287" style="enable-background:new 0 0 512.287 512.287;" xml:space="preserve">
<g>
	<g>
		<path  fill="#fff" d="M469.724,472.335c-39.933-23.767-70.791-50.761-93.599-80.333c-41.233-53.462-53.174-109.122-48.352-157.335H437.48
			c19.006,0,28.524-22.979,15.085-36.418l-192-192c-8.331-8.331-21.839-8.331-30.17,0l-192,192
			c-13.439,13.439-3.921,36.418,15.085,36.418h85.432c5.089,122.123,88.352,229.782,206.81,263.954
			c39.862,11.497,72.861,14.411,107.393,13.516c3.903-0.108,4.977-0.136,5.698-0.136C480.49,512,488.351,483.421,469.724,472.335z
			 M384.487,464.19c-8.643-1.702-17.573-3.864-26.94-6.565c-105.629-30.471-178.533-129.94-176.157-240.141
			c0.033-1.864,0.048-2.552,0.078-3.415c0.416-12.063-9.25-22.069-21.321-22.069h-55.163L245.48,51.503L385.977,192H309.48
			c-9.773,0-18.296,6.641-20.686,16.117c-0.655,2.596-1.513,6.908-2.331,12.758c-8.455,60.43,4.548,130.633,55.876,197.184
			c12.561,16.287,27.148,31.801,43.846,46.461L384.487,464.19z"/>
	</g>
</g>
<g>
</g>
<g>
</g>
<g>
</g>
<g>
</g>
<g>
</g>
<g>
</g>
<g>
</g>
<g>
</g>
<g>
</g>
<g>
</g>
<g>
</g>
<g>
</g>
<g>
</g>
<g>
</g>
<g>
</g>
</svg>
