<svg width="24" height="24" viewBox="0 0 24 24" fill="none" xmlns="http://www.w3.org/2000/svg">
<path style="fill:#cccccc" d="M13.665 5.87601C13.665 6.17501 13.914 6.41701 14.22 6.41701C14.526 6.41701 14.775 6.17501 14.775 5.87601C14.775 5.57701 14.526 5.33601 14.22 5.33601C13.913 5.33601 13.665 5.57701 13.665 5.87601ZM9.22399 5.87601C9.22399 6.17501 9.47199 6.41701 9.77899 6.41701C10.086 6.41701 10.334 6.17501 10.334 5.87601C10.334 5.57701 10.085 5.33601 9.77899 5.33601C9.47199 5.33601 9.22399 5.57701 9.22399 5.87601ZM14.756 3.94801L14.549 4.25201C16.119 4.96401 17.181 6.31401 17.181 7.85801H6.81899C6.81899 6.31401 7.88199 4.96501 9.45199 4.25201L9.24399 3.94801L9.03699 3.64801L8.57599 2.97401C8.51999 2.89101 8.54299 2.77901 8.62799 2.72401C8.71299 2.66901 8.82799 2.69101 8.88499 2.77401L9.58799 3.79901L9.79799 4.10801C10.467 3.85501 11.214 3.71401 12 3.71401C12.787 3.71401 13.533 3.85501 14.202 4.10801L14.413 3.79901L15.117 2.77401C15.172 2.69101 15.288 2.66801 15.372 2.72401C15.458 2.77901 15.481 2.89001 15.424 2.97401L14.963 3.64801L14.756 3.94801ZM6.81899 8.57801H17.181V16.503C17.181 17.132 16.657 17.644 16.009 17.644H15.162C15.191 17.739 15.208 17.839 15.208 17.944V20.226C15.208 20.823 14.71 21.306 14.096 21.306C13.483 21.306 12.986 20.822 12.986 20.226V17.944C12.986 17.839 13.002 17.739 13.03 17.644H10.968C10.996 17.739 11.013 17.839 11.013 17.944V20.226C11.013 20.823 10.515 21.306 9.90199 21.306C9.28899 21.306 8.79099 20.822 8.79099 20.226V17.944C8.79099 17.839 8.80699 17.739 8.83599 17.644H7.98999C7.34199 17.644 6.81699 17.132 6.81699 16.503V8.57801H6.81899ZM4.96799 8.57801C4.35399 8.57801 3.85699 9.06201 3.85699 9.65801V14.281C3.85699 14.878 4.35399 15.361 4.96799 15.361C5.58099 15.361 6.07799 14.877 6.07799 14.281V9.65801C6.07799 9.06201 5.58099 8.57801 4.96799 8.57801ZM17.922 9.65801C17.922 9.06201 18.419 8.57801 19.033 8.57801C19.646 8.57801 20.143 9.06201 20.143 9.65801V14.281C20.143 14.878 19.646 15.361 19.033 15.361C18.419 15.361 17.922 14.877 17.922 14.281V9.65801Z" fill="black"></path>
</svg>