<svg width="24" height="24" viewBox="0 0 24 24" fill="none" xmlns="http://www.w3.org/2000/svg">
<path style="fill:#cccccc" d="M8.14788 18.1081C8.14788 19.2516 7.21791 20.1816 6.07397 20.1816C4.93003 20.1816 4.00006 19.2516 4.00006 18.1081C4.00006 16.9641 4.93003 16.0341 6.07397 16.0341C7.21791 16.0341 8.14788 16.9645 8.14788 18.1081ZM19.9997 20.182C20.0311 15.4123 17.8256 10.6864 14.1303 7.67007C11.3151 5.31982 7.67004 3.98761 4.00006 4.00009V7.70183C8.34257 7.65155 12.6223 10.0143 14.8527 13.7474C16.0329 15.6841 16.659 17.9076 16.6628 20.1755H19.9997V20.182ZM14.3443 20.182C14.3628 17.1153 12.9051 14.099 10.5235 12.1759C8.70095 10.6804 6.35712 9.83812 4.00044 9.85097V12.9679C6.56429 12.9365 9.07823 14.4071 10.3035 16.6628C10.9004 17.7421 11.214 18.9551 11.2149 20.1884H14.3443V20.182Z" fill="black"></path>
</svg>