<svg width="24" height="24" viewBox="0 0 24 24" fill="none" xmlns="http://www.w3.org/2000/svg">
<path style="fill:#cccccc" d="M15.706 4.003L13.643 4C11.325 4 9.82699 5.545 9.82699 7.938V9.753H7.75299C7.57399 9.753 7.42899 9.899 7.42899 10.079V12.71C7.42899 12.89 7.57399 13.036 7.75299 13.036H9.82699V19.673C9.82699 19.853 9.97199 19.999 10.151 19.999H12.857C13.036 19.999 13.181 19.853 13.181 19.673V13.036H15.606C15.785 13.036 15.93 12.89 15.93 12.71L15.931 10.079C15.931 9.992 15.897 9.91 15.836 9.848C15.775 9.786 15.693 9.752 15.607 9.752H13.181V8.213C13.181 7.473 13.356 7.098 14.315 7.098H15.705C15.884 7.098 16.029 6.952 16.029 6.772V4.329C16.029 4.149 15.884 4.003 15.705 4.003H15.706Z" fill="#1977F3"></path>
</svg>