<svg width="24" height="24" viewBox="0 0 24 24" fill="none" xmlns="http://www.w3.org/2000/svg">
<path style="fill:#cccccc" d="M15.6377 3H8.3623C5.40551 3 3 5.40551 3 8.3623V15.6377C3 18.5945 5.40551 21 8.3623 21H15.6377C18.5945 21 21 18.5945 21 15.6377V8.3623C21 5.40551 18.5945 3 15.6377 3ZM19.1892 15.6377C19.1892 17.5991 17.5991 19.1892 15.6377 19.1892H8.3623C6.40088 19.1892 4.8108 17.5991 4.8108 15.6377V8.3623C4.8108 6.40084 6.40088 4.8108 8.3623 4.8108H15.6377C17.5991 4.8108 19.1892 6.40084 19.1892 8.3623V15.6377Z" fill="url(#instagram-brand-1)"></path>
<path style="fill:#cccccc" d="M12 7.34456C9.433 7.34456 7.34457 9.43299 7.34457 12C7.34457 14.5669 9.433 16.6554 12 16.6554C14.567 16.6554 16.6555 14.567 16.6555 12C16.6555 9.43295 14.567 7.34456 12 7.34456ZM12 14.8446C10.4289 14.8446 9.15537 13.5711 9.15537 12C9.15537 10.4289 10.429 9.15536 12 9.15536C13.5711 9.15536 14.8447 10.4289 14.8447 12C14.8447 13.571 13.571 14.8446 12 14.8446Z" fill="url(#instagram-brand-2)"></path>
<path style="fill:#cccccc" d="M16.6645 8.49507C17.2806 8.49507 17.78 7.99563 17.78 7.37953C17.78 6.76344 17.2806 6.26399 16.6645 6.26399C16.0484 6.26399 15.5489 6.76344 15.5489 7.37953C15.5489 7.99563 16.0484 8.49507 16.6645 8.49507Z" fill="url(#instagram-brand-3)"></path>

</svg>