<svg  width="24" height="24" viewBox="0 0 24 24" xmlns="http://www.w3.org/2000/svg">
<path style="fill:#cccccc" d="M14.537 5.022C15.144 4.238 15.604 3.131 15.438 2C14.446 2.069 13.286 2.704 12.61 3.531C11.993 4.281 11.486 5.396 11.684 6.478C12.769 6.512 13.888 5.862 14.537 5.021V5.022ZM19.898 15.656C19.464 16.623 19.255 17.056 18.696 17.913C17.916 19.109 16.816 20.599 15.452 20.61C14.241 20.623 13.929 19.817 12.285 19.826C10.641 19.835 10.299 20.625 9.08599 20.613C7.72299 20.601 6.68099 19.257 5.90099 18.061C3.71899 14.719 3.48899 10.795 4.83499 8.708C5.79199 7.226 7.30199 6.359 8.72099 6.359C10.165 6.359 11.073 7.156 12.268 7.156C13.428 7.156 14.134 6.357 15.804 6.357C17.068 6.357 18.407 7.05 19.36 8.245C16.236 9.968 16.742 14.456 19.898 15.656Z" fill="black"></path>
</svg>