<svg width="24" height="24" viewBox="0 0 24 24" fill="none" xmlns="http://www.w3.org/2000/svg">
<path style="fill:#cccccc" d="M3.24999 17.798C4.81799 18.873 6.68199 19.5 8.68299 19.5C15.265 19.5 18.982 13.563 18.759 8.235C19.45 7.702 20.053 7.035 20.527 6.274C19.892 6.575 19.208 6.781 18.49 6.871C19.221 6.403 19.784 5.661 20.049 4.775C19.366 5.21 18.606 5.526 17.799 5.696C17.152 4.96 16.231 4.5 15.209 4.5C12.923 4.5 11.241 6.781 11.759 9.149C8.80999 8.991 6.19999 7.484 4.45299 5.193C3.52399 6.895 3.97099 9.122 5.54899 10.248C4.96899 10.229 4.41999 10.059 3.94199 9.774C3.90599 11.527 5.07999 13.168 6.78699 13.535C6.28799 13.681 5.74099 13.713 5.18599 13.599C5.63499 15.106 6.94599 16.2 8.49499 16.228C7.00499 17.479 5.12799 18.035 3.24899 17.797L3.24999 17.798Z" fill="#1DA1F2"></path>
</svg>