<svg width="24" height="24" viewBox="0 0 24 24" fill="none" xmlns="http://www.w3.org/2000/svg">
<path style="fill:#cccccc" d="M10.2831 19.029C6.47421 18.9588 5.17328 18.8958 4.37365 18.731C3.83265 18.6215 3.36252 18.3785 3.0178 18.026C2.75138 17.7592 2.53951 17.3522 2.37513 16.7874C2.23413 16.3169 2.17921 15.9254 2.10092 14.9692C1.98107 12.8111 1.95249 11.0468 2.10092 9.07533C2.22337 7.98665 2.28274 6.69425 3.0961 5.94026C3.48014 5.58739 3.9269 5.3603 4.42857 5.26642C5.21224 5.11763 8.55102 5 12.0074 5C15.456 5 18.8022 5.11763 19.5867 5.26642C20.2134 5.38405 20.8011 5.73655 21.1462 6.1911C21.8883 7.35845 21.9013 8.81003 21.9767 9.94546C22.0078 10.4865 22.0078 13.5585 21.9767 14.0995C21.8594 15.8939 21.7652 16.5288 21.4987 17.187C21.334 17.6026 21.1933 17.8219 20.9499 18.065C20.5682 18.439 20.0815 18.6878 19.5548 18.7781C16.2586 19.026 13.4598 19.0798 10.2831 19.029ZM15.3306 11.8186C13.4969 10.8386 11.741 9.92988 9.9462 8.98925V14.6167C11.8349 13.59 13.826 12.6494 15.3384 11.8108L15.3306 11.8186Z" fill="black"></path>
</svg>